<?xml version="1.0" encoding="utf-8" ?>
<svg xmlns="http://www.w3.org/2000/svg" xmlns:xlink="http://www.w3.org/1999/xlink" width="1080" height="1080">
	<path fill="#2E6A79" transform="scale(2.16 2.16)" d="M37.4607 148.088C37.5634 148.077 37.6658 148.062 37.7688 148.053C44.6793 147.469 52.1212 147.963 59.0974 147.96L101.866 147.929L239.774 147.968L389.577 147.991L437.194 148.005C445.191 148.003 453.476 147.543 461.446 148.067Q462.297 148.123 463.141 148.247Q463.986 148.372 464.817 148.563Q465.648 148.755 466.462 149.012Q467.275 149.27 468.065 149.591Q468.855 149.913 469.617 150.298Q470.379 150.682 471.107 151.126Q471.836 151.57 472.526 152.071Q473.217 152.572 473.865 153.127C478.355 156.902 481.395 162.249 481.88 168.122C482.189 171.862 482.011 175.729 482.012 179.484L482.012 199.355L482.007 262.05L482.022 309.141L482.047 322.973C482.053 326.33 482.19 329.763 481.761 333.097C481.247 337.09 479.256 341.037 476.661 344.084C472.68 348.76 467.606 351.198 461.562 351.723C452.045 352.136 442.424 351.873 432.894 351.871L382.693 351.863L229.822 351.881L101.427 351.883L61.6307 351.958C54.2249 351.992 46.6099 352.377 39.2262 351.94C34.9272 351.686 31.2007 350.518 27.654 348.037C23.2477 344.955 19.2352 339.676 18.3417 334.282C17.2022 327.404 17.8032 316.541 17.7972 309.272L17.7785 261.919L17.7755 200.458L17.8128 180.415C17.8337 176.401 17.6999 172.265 18.086 168.272C18.4791 164.207 19.6834 160.614 22.1076 157.298C26.0294 151.934 30.9711 149.116 37.4607 148.088Z"/>
	<path fill="#4EAED3" transform="scale(2.16 2.16)" d="M41.9333 165.732L58.0397 165.769L58.0722 334.254L41.9524 334.255L41.9333 165.732Z"/>
	<path fill="#4EAED3" transform="scale(2.16 2.16)" d="M441.927 165.729C447.295 165.801 452.671 165.759 458.04 165.773L458.073 334.254L441.951 334.259L441.927 165.729Z"/>
	<path fill="#4EAED3" transform="scale(2.16 2.16)" d="M185.704 276.048C203.343 276.38 221.037 276.044 238.683 276.075C238.57 283.825 238.685 291.591 238.696 299.342C235.19 302.51 231.92 306.004 228.579 309.349Q217.803 320.233 206.875 330.965L203.501 331.032L150.509 331.052L150.508 299.262L185.73 299.261L185.704 276.048Z"/>
	<path fill="#4EAED3" transform="scale(2.16 2.16)" d="M357.976 276.033C375.628 276.138 393.286 275.9 410.937 276.101C410.756 283.831 410.976 291.57 410.879 299.303C405.804 304.593 400.518 309.696 395.339 314.885C389.969 320.267 384.676 325.761 379.146 330.977L375.676 331.03L322.764 331.051L322.776 299.269L357.998 299.295L357.976 276.033Z"/>
	<path fill="#4EAED3" transform="scale(2.16 2.16)" d="M322.777 172.251C341.559 172.477 360.377 171.868 379.154 172.317C389.88 182.609 400.325 193.323 410.75 203.923C411.114 207.743 410.899 211.735 410.898 215.578L410.908 235.968C393.296 236.366 375.591 235.961 357.968 236.018L357.995 203.988C346.257 204.128 334.504 204.027 322.765 204.052L322.777 172.251Z"/>
	<path fill="#4EAED3" transform="scale(2.16 2.16)" d="M150.509 172.252C169.284 172.397 188.075 171.988 206.846 172.306C211.283 176.429 215.494 180.851 219.778 185.135Q229.264 194.56 238.646 204.087L238.679 235.978L185.719 236.018Q185.649 220.008 185.745 204L150.51 204.052L150.509 172.252Z"/>
	<path fill="#4EAED3" transform="scale(2.16 2.16)" d="M121.365 172.266L142.232 172.288L142.217 331.014Q131.722 331.088 121.227 330.982C119.232 329.254 117.402 327.269 115.529 325.407C106.802 316.707 98.1883 307.839 89.2855 299.321C89.142 288.628 89.2724 277.914 89.2729 267.219L89.2576 204.244C94.5751 198.148 100.787 192.56 106.523 186.843C111.368 182.014 116.114 176.612 121.365 172.266Z"/>
	<path fill="#4EAED3" transform="scale(2.16 2.16)" d="M293.515 172.258L314.494 172.279L314.512 331.01Q303.996 331.085 293.481 330.99C291.583 329.284 289.803 327.421 287.988 325.625L261.554 299.275C261.31 288.446 261.512 277.568 261.512 266.734L261.502 204.205C265.824 199.274 270.832 194.738 275.482 190.097C281.446 184.144 287.3 177.941 293.515 172.258Z"/>
</svg>
