<?xml version="1.0" encoding="utf-8" ?>
<svg xmlns="http://www.w3.org/2000/svg" xmlns:xlink="http://www.w3.org/1999/xlink" width="213" height="144">
	<path fill="#63B6D7" d="M195.675 28.8735L196.597 28.8251C198.112 29.5223 207.744 39.1602 208.471 40.6386C207.158 42.296 197.963 51.8271 196.405 52.7832L196.278 52.8337C193.48 52.0358 186.628 42.6187 183.51 40.7364C185.441 39.7772 193.932 30.9029 195.675 28.8735Z"/>
	<path fill="#63B6D7" d="M195.681 57.3735C196.259 57.2971 196.63 57.2738 197.116 57.6022C199.019 58.8864 210.133 69.7004 210.45 71.2985C210.443 71.3201 210.437 71.3419 210.429 71.3632C210.3 71.7277 210.048 72.0974 209.786 72.3788C208.763 73.4803 196.614 85.3792 196.106 85.6266C196.093 85.6284 196.079 85.6324 196.065 85.6319C194.49 85.5728 183.708 73.3396 181.459 71.5532C182.591 70.9905 194.676 58.8166 195.681 57.3735Z"/>
	<path fill="#63B6D7" d="M155.677 50.368C155.988 50.3632 156.288 50.4266 156.593 50.4791C159.417 52.738 176.964 70.0264 177.174 71.5261C177.156 71.8967 176.954 72.2536 176.719 72.5346C175.67 73.7829 174.321 74.9059 173.164 76.0671Q168.993 80.3099 164.729 84.4596C162.202 86.9402 159.789 89.8372 157.12 92.1361C156.809 92.4042 156.432 92.5249 156.026 92.5602C151.963 89.2058 148.259 85.0137 144.51 81.2814C141.346 78.131 137.468 74.9311 134.825 71.3562C138.628 66.7166 144.829 60.9524 149.272 56.7153C151.27 54.8099 154.183 52.6334 155.677 50.368Z"/>
	<path fill="#2E6A79" d="M65.7033 3.10378C70.1034 2.86787 74.5846 2.86088 78.9892 3.00482C96.5558 3.5789 115.473 12.617 127.425 25.3755C125.221 28.3546 122.432 31.1252 120.009 33.9481C116.704 37.7983 113.436 42.31 109.722 45.7045C107.475 44.3098 105.447 41.6887 103.408 39.9357C96.3551 33.8707 87.3358 29.3971 77.9949 28.5567Q76.9862 28.4722 75.9745 28.4367Q74.9629 28.4012 73.9507 28.4149Q72.9385 28.4285 71.9282 28.4913Q70.9179 28.5541 69.9118 28.6658Q68.9057 28.7775 67.9062 28.9379Q66.9067 29.0984 65.9162 29.3071Q64.9257 29.5158 63.9465 29.7724Q62.9673 30.029 62.0017 30.3328Q61.0361 30.6366 60.0863 30.9869Q59.1366 31.3372 58.205 31.7331Q57.2734 32.1291 56.3621 32.5698Q55.4508 33.0105 54.562 33.495Q53.6731 33.9794 52.8089 34.5064Q51.9446 35.0334 51.1069 35.6017Q50.2692 36.17 49.4601 36.7783Q48.651 37.3866 47.8724 38.0335C39.5271 45.0048 34.2069 55.5483 33.2438 66.3439C32.135 78.7722 34.6182 91.106 42.7895 100.846C49.5582 108.915 59.7936 114.773 70.3544 115.674C84.7002 116.897 97.4599 110.108 108.096 101.127L109.606 99.9054C115.958 105.611 121.667 112.255 127.628 118.385C114.704 131.669 97.0887 140.764 78.5398 142.341C59.5789 143.952 41.2441 138.693 26.6178 126.319C12.4827 114.361 3.47574 97.7794 1.9408 79.2492C0.422342 60.9179 4.88211 42.7423 16.9293 28.5448C29.3121 13.9518 46.552 4.68944 65.7033 3.10378Z"/>
</svg>
