<?xml version="1.0" encoding="utf-8" ?>
<svg xmlns="http://www.w3.org/2000/svg" xmlns:xlink="http://www.w3.org/1999/xlink" width="568" height="338">
	<path fill="#31636F" d="M209.414 284.271C211.451 284.354 213.46 284.458 215.493 284.249C215.143 293.29 215.685 302.369 215.444 311.415Q212.478 311.339 209.515 311.506C209.29 308.091 208.809 286.45 209.414 284.271Z"/>
	<path fill="#31636F" d="M395.105 284.623C396.876 284.516 398.692 284.604 400.473 284.532C400.607 284.748 400.729 284.943 400.802 285.188C401.341 286.998 401.2 302.711 400.964 305.44C400.921 305.927 400.765 306.324 400.513 306.741Q406.369 306.68 412.225 306.774C412.339 306.946 412.434 307.089 412.482 307.294C412.754 308.449 412.575 310.256 411.911 311.239C410.958 311.758 396.58 311.441 394.445 311.499C396.563 307.808 393.876 290.052 395.105 284.623Z"/>
	<path fill="#31636F" d="M409.441 284.901C411.194 284.798 412.903 284.697 414.658 284.842C414.963 285.059 415.255 285.303 415.464 285.618C416.556 287.255 420.332 294.546 420.026 296.164C423.096 293.442 422.979 287.493 426.338 285.272C427.764 284.329 429.607 284.866 431.153 285.177C431.175 285.33 431.203 285.448 431.195 285.599C431.092 287.538 427.229 294.874 425.87 296.272C426.028 297.272 424.258 300.075 423.91 301.192C423.032 304.009 424.638 309.233 423.281 311.517C421.123 311.312 418.856 311.454 416.685 311.47C416.712 311.426 416.742 311.382 416.767 311.337C417.326 310.322 417.216 308.773 417.258 307.635C417.617 297.913 411.588 293.298 409.441 284.901Z"/>
	<path fill="#31636F" d="M140.173 284.271C143.469 283.99 147.135 283.862 149.833 286.042C151.34 287.259 153.638 289.785 153.671 291.856C153.683 292.622 153.363 292.865 152.875 293.38C151.482 293.804 149.698 293.55 148.247 293.508C147.674 291.887 147.076 290.021 145.405 289.208C144.27 288.656 142.458 288.702 141.28 289.107C140.092 289.515 139.312 290.464 138.785 291.564C137.366 294.528 137.309 300.508 138.471 303.558C138.976 304.885 139.858 306.086 141.189 306.666C142.39 307.188 143.921 307.188 145.121 306.67C146.619 306.021 147.206 304.88 147.793 303.445C147.929 302.965 147.903 302.735 148.411 302.497C149.516 301.979 152.007 302.034 153.149 302.411C153.555 302.545 153.737 302.694 153.891 303.105C154.118 303.713 153.933 304.428 153.687 304.997C152.634 307.434 149.759 310.191 147.248 311.085C144.522 312.055 140.365 311.785 137.757 310.532C135.31 309.357 133.546 307.25 132.662 304.701C131.294 300.759 131.336 293.684 133.186 289.921C134.689 286.865 137.046 285.328 140.173 284.271Z"/>
	<path fill="#31636F" d="M290.766 284.255C293.566 284.094 296.527 284.056 299.09 285.351C302.478 287.063 303.614 290.108 304.736 293.489C302.765 293.61 300.816 293.556 298.845 293.496C298.495 292.202 298.082 290.543 297.013 289.656C296.088 288.889 294.501 288.675 293.337 288.847C292.044 289.039 290.937 289.739 290.183 290.801C288.259 293.508 288.411 298.837 288.984 302.019C289.255 303.519 289.916 305.348 291.286 306.187C292.362 306.846 294.114 307.192 295.325 306.815C297.045 306.281 297.661 304.954 298.366 303.456C298.599 303.191 298.849 302.936 299.16 302.762C299.933 302.328 302.474 302.255 303.333 302.526C303.838 302.685 304.327 302.985 304.555 303.468C304.886 304.168 304.748 304.792 304.476 305.49C303.542 307.892 300.832 310.003 298.504 310.932C295.645 312.074 291.873 312.236 289.034 310.948C286.298 309.707 284.049 307.08 283.019 304.284C281.602 300.438 281.749 294.299 283.497 290.602C285.015 287.391 287.46 285.412 290.766 284.255Z"/>
	<path fill="#31636F" d="M257.789 284.58C258.727 284.568 260.125 284.446 260.968 284.874C262.399 285.6 270.34 308.53 271.407 311.322L264.92 311.234L263.3 306.265L259.242 306.161Q256.561 306.171 253.882 306.288C253.406 307.971 252.912 309.6 252.248 311.222C250.108 311.342 247.951 311.35 245.808 311.409Q249.144 301.68 252.83 292.078C253.654 289.955 254.396 287.322 255.665 285.454C256.146 284.747 257.007 284.705 257.789 284.58ZM258.557 292.167C257.203 294.976 256.446 298.199 255.592 301.19L259.386 301.135L260.88 301.076C261.285 300.556 261.302 300.39 261.215 299.722C261.107 298.894 259.08 292.705 258.557 292.167Z"/>
	<path fill="#31636F" d="M376.785 284.9C378.51 284.616 380.28 284.735 382.014 284.85C382.266 285.037 382.444 285.203 382.609 285.475C384.107 287.929 392.439 310.146 392.166 311.405C390.786 311.377 389.072 311.555 387.745 311.279C384.442 310.591 385.806 308.743 384.552 306.754C383.666 306.224 383.254 306.274 382.249 306.266C379.627 306.145 376.974 306.302 374.351 306.376C374.435 306.603 374.505 306.792 374.517 307.037C374.586 308.427 374.123 310.245 373.186 311.288C371.072 311.589 368.607 311.366 366.436 311.478C367.865 310.151 375.216 288.809 376.785 284.9ZM379.525 292.385C378.63 294.867 377.761 299.625 375.916 301.415L379.337 301.343C380.187 301.356 381.933 301.606 382.673 301.324C382.209 299.38 380.998 293.475 379.525 292.385Z"/>
	<path fill="#31636F" d="M165.681 284.528C167.473 284.43 169.252 284.488 171.045 284.541C175.221 293.12 177.868 302.563 181.314 311.451Q178.089 311.323 174.863 311.234C174.128 309.915 173.947 307.896 173.023 306.771C172.658 306.326 172.27 306.383 171.744 306.316C169.074 306.208 166.43 306.29 163.76 306.397C163.266 308.105 162.731 309.736 162.048 311.38Q158.911 311.33 155.778 311.165C159.304 302.483 161.396 292.857 165.681 284.528ZM168.128 292.096L165.419 301.175C166.691 301.164 167.979 301.113 169.249 301.172L171.005 301.215C171.5 299.985 169.232 294.1 168.629 292.728C168.49 292.413 168.411 292.287 168.128 292.096Z"/>
	<path fill="#31636F" d="M316.242 284.724C318.153 284.725 320.038 284.724 321.94 284.936C323.496 287.995 324.545 291.349 325.765 294.553C327.896 300.145 330.164 305.657 331.708 311.45C329.609 311.26 327.487 311.334 325.381 311.347C324.774 309.969 324.543 307.759 323.536 306.665C323.076 306.164 322.558 306.295 321.927 306.27Q318.162 306.186 314.396 306.204C313.858 307.909 313.474 309.7 313.031 311.435C310.872 311.347 308.737 311.377 306.578 311.443C308.397 304.296 313.091 291.433 316.242 284.724ZM318.853 292.367Q317.439 297.044 315.863 301.669L320.284 301.813L322.04 301.698L322.207 301.424C321.783 300.15 319.77 293.225 319.38 292.713C319.252 292.546 319.029 292.482 318.853 292.367Z"/>
	<path fill="#31636F" d="M220.245 284.185C222.278 284.522 224.496 284.458 226.56 284.529C229.925 290.042 233.071 295.727 236.227 301.363C236.859 295.844 236.586 290.03 236.455 284.479L242.686 284.502C242.746 293.482 242.486 302.511 242.808 311.482C240.712 311.337 238.592 311.33 236.491 311.271C233.188 305.992 230.651 300.05 227.075 294.983C226.536 300.418 226.815 306.082 226.817 311.548C224.658 311.372 222.427 311.49 220.259 311.51L220.116 292.837C220.12 289.972 219.993 287.034 220.245 284.185Z"/>
	<path fill="#31636F" d="M183.544 284.302C187.377 284.212 191.421 283.926 195.226 284.387C198.017 284.725 200.837 285.635 202.613 287.944C203.923 289.646 204.498 292.212 204.201 294.323C203.799 297.18 201.468 298.768 199.329 300.373C201.355 304.023 203.254 307.69 204.939 311.511C202.827 311.289 200.68 311.329 198.557 311.299C196.947 309.139 195.114 304.588 193.689 302.042L189.753 301.71C189.762 304.965 189.687 308.246 190.063 311.483C187.97 311.359 185.997 311.364 183.902 311.499C184.029 304.829 183.537 298.086 183.462 291.405C183.437 289.16 183.163 286.501 183.544 284.302ZM189.917 289.003C189.843 291.679 189.887 294.348 189.934 297.023C192.576 297.046 194.816 297.235 197.215 295.953C197.857 294.666 198.539 293.175 198.117 291.706C197.881 290.884 197.257 290.277 196.508 289.899C194.528 288.899 192.08 289.04 189.917 289.003Z"/>
	<path fill="#31636F" d="M354.701 284.796Q358.642 284.807 362.582 284.737C362.713 284.967 362.842 285.188 362.919 285.443C363.269 286.602 363.256 307.582 363.186 310.238C363.174 310.688 363.03 311.061 362.822 311.456C360.762 311.372 358.706 311.434 356.646 311.48C356.789 311.228 356.93 310.978 357.017 310.7C357.543 309.029 357.358 300.095 356.72 298.735C356.915 298.427 357.059 298.11 357.124 297.748C357.403 296.188 357.201 294.578 356.315 293.253C356.416 293.751 356.539 294.275 356.437 294.781C355.917 297.354 352.057 308.454 350.634 310.843C349.938 311.231 349.126 311.453 348.32 311.383C344.386 311.039 342.654 294.862 339.791 291.835C339.731 291.771 339.668 291.708 339.606 291.645C339.747 291.975 339.89 292.319 339.963 292.671C340.427 294.929 340.946 309.896 340.045 311.36C338.14 311.245 336.218 311.346 334.311 311.392C333.89 302.577 334.197 293.585 334.262 284.754Q338.263 284.812 342.265 284.822C342.473 285.012 342.684 285.224 342.831 285.467C343.748 286.973 348.55 302.125 348.298 303.32C348.471 303.163 348.449 303.188 348.633 302.988C349.708 301.818 354.765 286.302 354.701 284.796Z"/>
	<path fill="#31636F" d="M259.262 43.3628Q263.645 43.0387 268.04 43.093Q272.436 43.1473 276.81 43.5795Q281.184 44.0118 285.504 44.8189Q289.825 45.6259 294.06 46.8018Q299.436 48.3542 304.503 50.729C308.503 52.6042 320.306 59.2345 322.334 63.028C322.75 63.8061 322.99 64.8183 322.667 65.6717C321.837 67.863 306.592 83.0217 303.902 85.194C302.431 86.382 301.029 87.1498 299.268 87.833C296.173 86.8141 293.404 84.7703 290.607 83.1346C282.613 78.4602 275.191 76.6314 265.966 76.9597C253.165 77.4152 242.022 83.1093 233.397 92.4278C231.258 94.7392 229.521 97.3465 227.895 100.035C222.249 109.368 221.479 117.136 221.911 127.84C222.361 138.995 228.79 149.76 236.834 157.164C240.089 160.159 243.728 162.408 247.673 164.389C261.652 171.409 276.579 171.021 290.103 163.071C292.102 161.897 298.386 156.475 299.823 156.483C302.584 156.499 307.846 163.216 309.891 165.25C314.797 170.108 320.714 175.029 324.706 180.646C322.67 183.144 319.681 185.51 317.088 187.426Q315.001 188.959 312.823 190.359Q310.645 191.758 308.383 193.019Q306.122 194.28 303.786 195.397Q301.45 196.514 299.049 197.483Q296.648 198.452 294.191 199.269Q291.734 200.086 289.23 200.748Q286.727 201.409 284.187 201.913Q281.647 202.418 279.081 202.762C257.387 205.628 235.866 200.421 218.461 187.042C203.676 175.677 190.826 155.654 188.417 137.013C185.986 118.196 187.723 101.696 196.85 84.7599C198.97 80.8266 201.26 76.9202 204.007 73.3867C205.958 70.8765 208.217 68.6105 210.459 66.3622C223.97 52.8143 240.348 45.6942 259.262 43.3628Z"/>
	<path fill="#31636F" d="M23.8747 213.145C44.7694 213.611 65.7786 213.213 86.6834 213.206L202.099 213.199L544.494 213.207C544.656 213.473 544.807 213.756 544.882 214.061C545.449 216.357 544.95 229.768 544.943 232.991L544.945 256.301C544.958 260.562 545.122 264.858 544.96 269.113C544.921 270.139 544.976 270.71 544.404 271.593C542.811 272.232 453.881 271.742 443.623 271.743L23.9294 271.735L23.8747 213.145ZM192.625 223.013C188.007 223.722 184.482 225.529 181.674 229.377C178.144 234.215 177.856 241.327 178.836 247.088C179.561 251.35 181.929 255.328 185.514 257.79C189.241 260.35 192.909 260.303 197.235 260.245C200.864 259.903 203.873 258.174 206.193 255.373C210.183 250.557 210.752 243.907 210.156 237.886C209.715 233.431 208.145 229.247 204.609 226.337C201.173 223.509 196.959 222.754 192.625 223.013ZM216.434 223.283C215.779 223.364 215.218 223.287 214.773 223.801C214.401 235.776 214.54 248.033 214.986 260.004L224.183 260.026C224.348 252.968 223.789 245.7 224.339 238.685C225.675 241.792 227.627 244.684 229.279 247.634C231.584 251.748 233.661 256.139 236.384 260C239.242 260.035 242.106 260.106 244.964 260.047L245.583 259.936C246.393 258.13 245.833 235.582 245.764 231.801C245.717 229.203 245.244 226.1 245.716 223.559C242.311 223.255 239.124 223.166 235.725 223.552C236.321 228.851 236.171 239.101 235.876 244.552C232.549 237.289 227.866 230.544 224.21 223.404C221.63 223.167 219.021 223.256 216.434 223.283ZM503.638 223.346L502.866 223.495C501.277 226.203 503.385 258.07 502.123 260.049C505.224 260.047 508.378 259.922 511.473 260.077C512.359 258.715 512.282 250.101 511.863 248.365C511.796 248.088 511.658 247.818 511.519 247.571L515.267 247.589C517.831 249.405 520.954 259.64 522.799 259.998C523.19 260.074 523.707 260.041 524.11 260.06C526.799 260.014 529.806 259.697 532.456 260.082C532.406 258.502 525.942 246.499 524.624 245.253C524.583 245.214 524.539 245.177 524.496 245.139C527.445 243.582 529.525 241.563 530.517 238.311C531.381 235.479 531.47 232.183 530.009 229.528C528.33 226.478 524.876 224.833 521.651 223.95C516.521 222.547 508.978 222.949 503.638 223.346ZM344.258 223.429C345.108 224.938 345.365 235.534 344.724 237.312C344.676 237.447 344.549 237.638 344.482 237.749Q338.825 237.746 333.168 237.65C333.136 232.882 332.966 228.063 333.174 223.301C331.08 223.361 328.931 223.135 326.853 223.312C325.737 223.36 324.595 223.456 323.48 223.392C323.923 235.542 323.828 247.86 323.72 260.023L333.158 260.055C333.145 255.016 333.182 249.972 333.097 244.934C336.825 245.003 340.689 244.751 344.395 245.049C345.328 246.391 345.186 257.104 344.898 259.107C344.845 259.477 344.728 259.715 344.526 260.022L351.048 260.038C352.066 260.048 353.257 260.184 354.207 259.804C354.475 257.452 354.298 254.966 354.281 252.598L354.258 240.762C354.256 236.849 354.718 226.648 354.118 223.509C350.797 223.051 347.585 223.367 344.258 223.429ZM51.9448 223.022C47.6857 223.655 44.113 225.166 41.4801 228.741C37.6495 233.943 37.5619 240.969 38.5507 247.096C39.2316 251.315 41.0944 255.174 44.6621 257.689C48.7041 260.539 54.6273 260.847 59.382 259.943C62.8229 259.289 65.9276 257.808 68.7165 255.727C69.2886 250.543 69.028 245.201 68.9567 239.992Q62.8713 239.977 56.7861 240.038L53.7705 240.064L53.7018 246.724L59.2547 247.013C59.2348 248.716 59.5431 250.975 58.2815 252.299C57.6265 252.987 56.6983 253.157 55.7839 253.131C53.8167 253.074 51.0601 252.368 49.7061 250.894C47.2541 248.224 47.0477 243.773 47.2647 240.337C47.4509 237.39 48.0542 233.937 50.3601 231.86C51.6122 230.732 53.1925 230.259 54.8632 230.385C56.2022 230.486 57.3397 230.903 58.2215 231.969C59.0661 232.991 59.393 234.449 59.6221 235.726C62.6928 235.921 65.8992 236.02 68.9751 235.918C67.9159 231.523 66.7995 227.209 62.6458 224.719C59.3435 222.739 55.6438 222.881 51.9448 223.022ZM426.077 223.294C426.388 223.825 426.554 224.335 426.612 224.948C426.892 227.931 426.931 247.892 426.332 250.02C426.064 250.976 425.61 251.538 424.734 252.008C423.233 252.812 420.997 252.757 419.419 252.232C418.419 251.899 417.314 251.277 416.891 250.261C415.767 247.559 417.516 229.258 416.283 223.423C413.714 223.242 411.09 223.081 408.521 223.346L407.553 223.467C406.689 224.729 406.918 248.062 407.44 250.771C408 253.674 409.586 256.115 412.039 257.777C415.802 260.325 421.49 260.88 425.916 260.02C429.179 259.386 432.413 257.531 434.297 254.747Q434.861 253.916 435.246 252.988Q435.632 252.061 435.823 251.075C436.297 248.542 436.586 235.073 436.109 232.645C436.041 232.294 435.883 231.97 435.694 231.67C436.572 230.259 436.415 225.741 436.103 224.048C436.047 223.745 435.924 223.488 435.765 223.229Q430.921 223.187 426.077 223.294ZM480.263 223.346C479.833 223.407 479.23 223.363 478.951 223.705C477.908 224.989 477.201 228.312 476.586 229.991Q472.293 241.987 467.616 253.838C466.836 255.805 466.379 258.093 465.437 259.955Q470.318 260.097 475.201 260.038C476.308 258.972 477.296 255.513 477.413 253.994C477.433 253.732 477.388 253.555 477.326 253.304C480.25 253.04 483.183 253.126 486.114 253.165C487.036 253.179 488.062 252.963 488.772 253.658C489.857 254.721 490.672 257.814 490.636 259.342C490.633 259.466 490.596 259.649 490.577 259.762C493.896 260.163 497.301 260.098 500.64 260.008C500.783 259.312 500.648 258.831 500.439 258.171C497.869 250.079 494.537 242.182 491.605 234.213C490.662 231.65 489.081 225.728 487.81 223.908C487.684 223.728 487.685 223.738 487.554 223.606Q483.909 223.454 480.263 223.346ZM72.6197 223.24C73.0293 235.523 72.616 247.887 72.6406 260.18C76.6373 259.848 80.7464 260.035 84.7619 260.04C89.119 260.044 93.5356 259.907 97.8842 260.102Q97.9461 256.395 97.9639 252.688L82.1985 252.564Q82.2951 249.22 82.2678 245.875L82.3978 245.156C83.8368 244.213 93.56 244.842 95.8974 244.873C95.8015 242.527 95.7069 240.192 95.7598 237.843Q88.9966 237.91 82.2333 237.843L82.2437 230.901C87.3196 231.07 92.9251 231.42 97.9574 230.794L98.1539 223.272Q85.387 223.094 72.6197 223.24ZM113.362 223.053C109.511 223.316 105.351 224.556 102.736 227.579C101.214 229.337 100.511 232.154 100.713 234.441C100.936 236.961 102.365 238.995 104.276 240.571C105.753 241.789 107.434 242.693 109.18 243.459C111.58 244.512 119.006 246.355 119.237 249.463C119.302 250.335 118.874 251.188 118.277 251.8C117.238 252.866 115.636 253.29 114.183 253.258C112.798 253.227 111.484 252.758 110.518 251.739C109.407 250.568 109.226 249.286 109.062 247.743L99.5946 247.983C100.245 251.909 101.043 254.821 104.45 257.284C107.563 259.535 111.391 260.353 115.167 260.392C119.213 260.313 123.123 259.848 126.084 256.753C127.837 254.921 128.927 252.356 128.872 249.807C128.811 246.931 127.264 244.159 125.215 242.207C124.007 241.057 122.584 240.177 121.062 239.506C118.451 238.355 110.141 236.718 110.11 233.23C110.104 232.509 110.466 231.841 110.985 231.358C112.012 230.402 113.576 230.041 114.945 230.176C116.242 230.303 117.687 230.884 118.489 231.948C119.005 232.632 119.355 233.539 119.729 234.31C122.694 234.196 125.633 234.205 128.599 234.262C128.13 230.749 127.399 227.829 124.406 225.575C121.169 223.138 117.267 222.831 113.362 223.053ZM299.539 223.327C298.264 223.386 296.978 223.482 295.701 223.473C295.405 235.647 295.938 247.837 295.775 260.007C304.033 260.042 312.356 259.807 320.605 260.033C320.491 257.525 320.496 255.051 320.579 252.542C316.409 252.448 309.268 252.934 305.53 252.361C305.028 251.806 305.108 251.723 305.093 251.004C305.088 248.928 305.096 246.85 305.066 244.774Q311.74 244.879 318.414 244.822C318.265 242.494 318.178 240.158 318.372 237.829Q311.704 237.725 305.035 237.739L305.029 230.804C310.232 231.347 315.491 230.786 320.702 230.914C320.538 228.428 320.549 225.983 320.618 223.494C314.491 223.318 305.348 222.601 299.539 223.327ZM385.565 223.068C381.418 223.977 378.278 225.835 375.967 229.459C372.549 234.818 372.11 242.1 373.497 248.215C374.436 252.356 376.614 255.993 380.263 258.272C384.115 260.679 389.075 260.99 393.42 259.925C396.965 259.055 400.307 256.928 402.178 253.74C403.198 252 403.96 249.587 403.455 247.566C403.395 247.326 403.307 247.101 403.22 246.87Q400.154 246.92 397.087 246.884C396.257 246.866 395.306 246.649 394.624 247.133C394.255 248.436 393.818 250.933 392.572 251.639C391.005 252.526 387.716 252.609 385.996 252.052C384.986 251.725 384.224 251.087 383.742 250.138C382.66 248.006 382.518 236.111 383.354 233.772C383.823 232.459 384.779 231.484 386.046 230.924C387.654 230.213 389.617 230.204 391.239 230.878C392.542 231.418 393.551 232.337 394.082 233.658C394.434 234.534 394.674 235.582 394.476 236.513C397.549 236.548 400.659 236.681 403.724 236.466C404.208 234.921 403.013 231.916 402.3 230.54C400.6 227.255 398.296 224.784 394.685 223.689C391.766 222.803 388.583 222.848 385.565 223.068ZM263.094 223.362C261.857 223.445 260.634 223.507 259.394 223.497Q265.699 241.706 271.64 260.037L281.55 260.06C284.406 251.849 286.755 243.446 289.843 235.318C291.026 231.447 292.11 227.514 293.455 223.699C290.039 223.631 286.607 223.493 283.192 223.587C281.643 232.122 279.228 241.185 276.591 249.446C274.78 240.721 271.42 232.186 269.917 223.43C267.627 223.308 265.385 223.209 263.094 223.362ZM130.941 223.375C130.448 225.675 130.877 228.595 130.897 230.974C134.41 230.981 138.002 231.147 141.505 230.924Q141.428 245.472 141.569 260.018L150.514 260.084L150.517 249.341L150.459 230.948Q155.913 230.999 161.366 230.914C161.21 228.405 161.117 225.838 161.332 223.33C155.091 223.102 148.835 223.178 142.591 223.18C138.786 223.18 134.718 222.931 130.941 223.375ZM440.399 223.346C439.118 229.54 441.762 257.228 440.254 259.889C440.23 259.931 440.208 259.975 440.185 260.018C444.263 260.04 461.519 260.608 464.083 259.947C465.248 258.637 465.225 256.978 465.129 255.278C465.078 254.373 465.117 253.305 464.589 252.549C459.665 251.751 454.53 252.27 449.556 252.089C449.815 251.7 449.989 251.309 450.04 250.842C450.377 247.725 450.493 226.522 449.947 224.115C449.893 223.876 449.782 223.641 449.67 223.424C446.645 223.411 443.395 223.095 440.399 223.346ZM359.412 223.346C358.185 225.702 360.118 258.148 358.837 260.156C361.934 260.014 365.021 260.022 368.119 260.038C368.363 259.926 368.817 259.812 368.909 259.56C369.396 258.218 369.363 224.846 368.763 223.603C368.739 223.554 368.711 223.507 368.686 223.459Q364.054 223.031 359.412 223.346ZM166.859 223.364C166.146 223.402 165.402 223.312 164.793 223.692C164.585 228.266 164.862 232.904 164.896 237.486L164.986 260.021L172.004 260.065C172.757 260.054 173.401 260.204 174 259.725C174.303 256.361 174.133 252.887 174.127 249.508L174.083 231.742C174.076 228.998 173.931 226.16 174.173 223.43C171.728 223.31 169.302 223.154 166.859 223.364Z"/>
	<path fill="#31636F" d="M482.89 235.546L483.382 235.723C484.516 237.53 486.37 243.454 486.112 245.493C485.316 245.893 483.957 245.736 483.063 245.735L479.837 245.664C481.171 243.649 482.629 237.944 482.89 235.546Z"/>
	<path fill="#31636F" d="M512.408 230.833C514.223 230.923 516.18 230.748 517.965 231.035C519.029 231.206 520.128 231.688 520.743 232.608C521.485 233.715 521.548 235.515 521.188 236.779C520.896 237.805 520.428 238.256 519.52 238.777C517.89 240.165 513.707 239.709 511.604 239.732C512.781 237.293 510.94 232.8 512.408 230.833Z"/>
	<path fill="#31636F" d="M193.08 230.449C194.41 230.378 195.618 230.413 196.844 230.996C198.55 231.808 199.732 233.497 200.321 235.248C201.604 239.059 201.599 245.692 199.791 249.295C198.914 251.044 197.969 251.867 196.112 252.467C194.927 252.532 193.483 252.653 192.341 252.284C191.019 251.856 190.114 251.174 189.455 249.921C187.731 246.642 187.548 237.793 188.73 234.282C189.421 232.232 191.258 231.337 193.08 230.449Z"/>
</svg>
